<svg width="266" height="210" viewBox="0 0 266 210" fill="none" xmlns="http://www.w3.org/2000/svg">
<path d="M169.901 204.753C167.344 202.196 165.638 199.02 165.15 195.886C164.666 192.756 165.427 189.916 167.279 187.957L235.129 112.493C239.182 107.985 247.233 108.769 252.839 114.217L260.65 121.812C266.256 127.26 267.161 135.177 262.642 139.235L186.98 207.105C185.02 208.958 182.147 209.744 178.963 209.306C175.779 208.868 172.534 207.235 169.901 204.753Z" fill="#648EAD"/>
<path d="M116.161 171.801C115.171 171.289 114.245 170.612 113.431 169.802C112.626 168.992 111.945 168.068 111.441 167.088C110.928 166.108 110.605 165.089 110.478 164.081C110.348 163.077 110.424 162.106 110.692 161.232L129.914 93.8474C130.446 91.9207 131.818 90.4932 133.717 89.8799C135.624 89.2669 137.904 89.5159 140.068 90.5816L146.183 93.7015C147.229 94.2464 148.201 94.9776 149.042 95.8452C149.882 96.7128 150.569 97.6986 151.063 98.7486C151.561 99.7944 151.852 100.878 151.919 101.928C151.986 102.978 151.829 103.973 151.455 104.848L126.117 169.113C125.455 170.851 124.057 172.094 122.21 172.595C120.367 173.091 118.209 172.811 116.161 171.801Z" fill="#648EAD"/>
<path d="M67.1214 177.82C60.8344 178.279 53.6599 172.134 50.8583 163.896L1.13417 17.6127C-1.83967 8.87009 1.2467 1.18333 7.91054 0.698678L17.2047 0.0240787C23.8772 -0.460253 31.4415 6.44977 33.8604 15.2284L74.2925 162.195C76.5738 170.471 73.4052 177.364 67.1214 177.82Z" fill="#648EAD"/>
</svg>
